{
	"asset":{
		"generator":"Khronos glTF Blender I/O v4.0.44",
		"version":"2.0"
	},
	"extensionsUsed":[
		"KHR_materials_clearcoat",
		"KHR_materials_transmission",
		"KHR_materials_specular",
		"KHR_materials_ior"
	],
	"scene":0,
	"scenes":[
		{
			"name":"Scene",
			"nodes":[
				0
			]
		}
	],
	"nodes":[
		{
			"mesh":0,
			"name":"piston_surface",
			"rotation":[
				0.70710688829422,
				0,
				0,
				0.7071066498756409
			],
			"scale":[
				0.1444687396287918,
				0.144468754529953,
				0.144468754529953
			]
		}
	],
	"materials":[
		{
			"alphaMode":"BLEND",
			"extensions":{
				"KHR_materials_clearcoat":{
					"clearcoatFactor":0.25,
					"clearcoatRoughnessFactor":0.029999999329447746
				},
				"KHR_materials_transmission":{
					"transmissionFactor":0.8999999761581421
				},
				"KHR_materials_specular":{
					"specularFactor":0
				},
				"KHR_materials_ior":{
					"ior":1.9500000476837158
				}
			},
			"name":"AR/VR Glass for GLTF extension",
			"occlusionTexture":{
				"index":0,
				"texCoord":1
			},
			"pbrMetallicRoughness":{
				"baseColorFactor":[
					0.800000011920929,
					0.800000011920929,
					0.800000011920929,
					0.3093361258506775
				],
				"metallicFactor":0.20000000298023224,
				"roughnessFactor":0
			}
		},
		{
			"doubleSided":true,
			"name":"platform",
			"pbrMetallicRoughness":{
				"baseColorFactor":[
					0.11475841701030731,
					0.1130075678229332,
					0.1130075678229332,
					1
				]
			}
		}
	],
	"meshes":[
		{
			"name":"Body_dmx/piston_lift_top_model.dmx_MESH",
			"primitives":[
				{
					"attributes":{
						"POSITION":0,
						"NORMAL":1,
						"TEXCOORD_0":2,
						"TEXCOORD_1":3
					},
					"indices":4,
					"material":0
				},
				{
					"attributes":{
						"POSITION":5,
						"NORMAL":6,
						"TEXCOORD_0":7,
						"TEXCOORD_1":8
					},
					"indices":9,
					"material":1
				}
			]
		}
	],
	"textures":[
		{
			"sampler":0,
			"source":0
		}
	],
	"images":[
		{
			"mimeType":"image/jpeg",
			"name":"mysen4_ao",
			"uri":"textures/mysen4_ao.jpg"
		}
	],
	"accessors":[
		{
			"bufferView":0,
			"componentType":5126,
			"count":36,
			"max":[
				6.238640785217285,
				6.2008819580078125,
				0.0735698938369751
			],
			"min":[
				-6.1630754470825195,
				-6.20083475112915,
				0.068123459815979
			],
			"type":"VEC3"
		},
		{
			"bufferView":1,
			"componentType":5126,
			"count":36,
			"type":"VEC3"
		},
		{
			"bufferView":2,
			"componentType":5126,
			"count":36,
			"type":"VEC2"
		},
		{
			"bufferView":3,
			"componentType":5126,
			"count":36,
			"type":"VEC2"
		},
		{
			"bufferView":4,
			"componentType":5123,
			"count":66,
			"type":"SCALAR"
		},
		{
			"bufferView":5,
			"componentType":5126,
			"count":4978,
			"max":[
				6.437808036804199,
				6.400000095367432,
				2.5110361576080322
			],
			"min":[
				-6.362192153930664,
				-6.400000095367432,
				0.016672730445861816
			],
			"type":"VEC3"
		},
		{
			"bufferView":6,
			"componentType":5126,
			"count":4978,
			"type":"VEC3"
		},
		{
			"bufferView":7,
			"componentType":5126,
			"count":4978,
			"type":"VEC2"
		},
		{
			"bufferView":8,
			"componentType":5126,
			"count":4978,
			"type":"VEC2"
		},
		{
			"bufferView":9,
			"componentType":5123,
			"count":12054,
			"type":"SCALAR"
		}
	],
	"bufferViews":[
		{
			"buffer":0,
			"byteLength":432,
			"byteOffset":0,
			"target":34962
		},
		{
			"buffer":0,
			"byteLength":432,
			"byteOffset":432,
			"target":34962
		},
		{
			"buffer":0,
			"byteLength":288,
			"byteOffset":864,
			"target":34962
		},
		{
			"buffer":0,
			"byteLength":288,
			"byteOffset":1152,
			"target":34962
		},
		{
			"buffer":0,
			"byteLength":132,
			"byteOffset":1440,
			"target":34963
		},
		{
			"buffer":0,
			"byteLength":59736,
			"byteOffset":1572,
			"target":34962
		},
		{
			"buffer":0,
			"byteLength":59736,
			"byteOffset":61308,
			"target":34962
		},
		{
			"buffer":0,
			"byteLength":39824,
			"byteOffset":121044,
			"target":34962
		},
		{
			"buffer":0,
			"byteLength":39824,
			"byteOffset":160868,
			"target":34962
		},
		{
			"buffer":0,
			"byteLength":24108,
			"byteOffset":200692,
			"target":34963
		}
	],
	"samplers":[
		{
			"magFilter":9729,
			"minFilter":9987
		}
	],
	"buffers":[
		{
			"byteLength":224800,
			"uri":"piston_surface.bin"
		}
	]
}
