<?xml version="1.0" encoding="UTF-8"?><svg id="black" xmlns="http://www.w3.org/2000/svg" viewBox="0 0 497.1264 497.1264"><defs><style>.cls-1{fill:#fff;}.cls-1,.cls-2{stroke-width:0px;}.cls-2{fill:#202020;}</style></defs><path class="cls-2" d="M0,165.046C0,97.0883,7.2826,55.8268,31.5547,31.5547,55.8268,7.2826,97.0883,0,165.046,0h167.0345c66.7895,0,107.7928,7.0344,132.2245,30.318,25.2864,24.0981,32.8215,65.6021,32.8215,134.728v167.0345c0,73.7828-8.5846,116.0966-38.1768,139.3644-24.9197,19.5939-64.7365,25.6815-126.8692,25.6815h-167.0345c-66.9633,0-108.0059-7.0711-132.4148-30.5001C7.4973,442.5015,0,401.0326,0,332.0805v-167.0345Z"/><path class="cls-1" d="M198.2375,248.4866l-105.0263-21.2532,23.6311-82.2382,99.7754,46.2017h64.7663l99.7753-46.2017,22.756,82.2382-105.9024,21.2532,74.3939,94.25-66.5165,50.8219-58.6402-109.0354-49.0125-36.0365Z"/></svg>