{
	"asset":{
		"generator":"Khronos glTF Blender I/O v4.0.44",
		"version":"2.0"
	},
	"extensionsUsed":[
		"KHR_materials_emissive_strength"
	],
	"scene":0,
	"scenes":[
		{
			"name":"Scene",
			"nodes":[
				0,
				1,
				2,
				3,
				4,
				5,
				6,
				7,
				8,
				9,
				10,
				11
			]
		}
	],
	"nodes":[
		{
			"mesh":0,
			"name":"Panel",
			"scale":[
				1,
				0.05000000074505806,
				1
			]
		},
		{
			"mesh":1,
			"name":"Cube",
			"rotation":[
				0.7071068286895752,
				0,
				0,
				0.7071068286895752
			],
			"translation":[
				-0.00010521266085561365,
				0.5024787187576294,
				0.00013342712190933526
			]
		},
		{
			"name":"PortalBase",
			"scale":[
				0.6105515360832214,
				0.7201570868492126,
				0.8714583516120911
			],
			"translation":[
				0.00015050731599330902,
				0.7918967008590698,
				-0.004239123314619064
			]
		},
		{
			"mesh":2,
			"name":"PanelSloped",
			"scale":[
				1,
				0.05000000074505806,
				1
			],
			"translation":[
				-4.805630683898926,
				0,
				0
			]
		},
		{
			"mesh":3,
			"name":"piston_surface",
			"rotation":[
				0.7071068286895752,
				0,
				0,
				0.7071068286895752
			],
			"scale":[
				0.1444687396287918,
				0.1444687396287918,
				0.1444687396287918
			],
			"translation":[
				0,
				0,
				4
			]
		},
		{
			"mesh":4,
			"name":"piston_base",
			"scale":[
				0.21491384506225586,
				0.21491384506225586,
				0.21491384506225586
			],
			"translation":[
				-1.6908363103866577,
				2.245318651199341,
				6.122298240661621
			]
		},
		{
			"mesh":5,
			"name":"piston_mid",
			"scale":[
				0.21491384506225586,
				0.21491384506225586,
				0.21491384506225586
			],
			"translation":[
				-3.47607159614563,
				2.0654962062835693,
				7.697842121124268
			]
		},
		{
			"mesh":6,
			"name":"piston_end",
			"scale":[
				0.21491384506225586,
				0.21491384506225586,
				0.21491384506225586
			],
			"translation":[
				-1.8029029369354248,
				2.129962205886841,
				7.159144401550293
			]
		},
		{
			"mesh":7,
			"name":"piston_tip",
			"scale":[
				0.21491384506225586,
				0.21491384506225586,
				0.21491384506225586
			],
			"translation":[
				-0.9237452149391174,
				2.2364230155944824,
				5.400358200073242
			]
		},
		{
			"mesh":8,
			"name":"PortalCutout",
			"scale":[
				0.6105515360832214,
				0.7201570868492126,
				0.8714583516120911
			],
			"translation":[
				3.097520589828491,
				0.07365495711565018,
				-0.004239123314619064
			]
		},
		{
			"mesh":9,
			"name":"PanelHole",
			"scale":[
				1,
				0.05000000074505806,
				1
			],
			"translation":[
				3.097370147705078,
				0,
				0
			]
		},
		{
			"mesh":10,
			"name":"Portal",
			"scale":[
				0.6105515360832214,
				0.7201570868492126,
				0.8714583516120911
			],
			"translation":[
				3.1042797565460205,
				0.05746430158615112,
				-0.004239123314619064
			]
		}
	],
	"materials":[
		{
			"doubleSided":true,
			"name":"Top",
			"normalTexture":{
				"index":0
			},
			"pbrMetallicRoughness":{
				"baseColorTexture":{
					"index":1
				},
				"metallicFactor":0,
				"roughnessFactor":0.46265560388565063
			}
		},
		{
			"doubleSided":true,
			"name":"Sides",
			"normalTexture":{
				"index":2
			},
			"pbrMetallicRoughness":{
				"baseColorTexture":{
					"index":3
				},
				"metallicFactor":0,
				"roughnessFactor":0.5
			}
		},
		{
			"doubleSided":true,
			"emissiveFactor":[
				0.23360837563461803,
				0.9249397628915709,
				1
			],
			"extensions":{
				"KHR_materials_emissive_strength":{
					"emissiveStrength":1.8104889392852783
				}
			},
			"name":"Blue",
			"pbrMetallicRoughness":{
				"baseColorFactor":[
					0,
					0,
					0,
					1
				]
			}
		},
		{
			"doubleSided":true,
			"name":"White",
			"pbrMetallicRoughness":{
				"baseColorFactor":[
					0.800000011920929,
					0.800000011920929,
					0.800000011920929,
					1
				],
				"metallicFactor":0,
				"roughnessFactor":0.5
			}
		},
		{
			"doubleSided":true,
			"name":"Grey",
			"pbrMetallicRoughness":{
				"baseColorFactor":[
					0.14563097059726715,
					0.16395169496536255,
					0.19171148538589478,
					1
				],
				"metallicFactor":0,
				"roughnessFactor":0.5
			}
		},
		{
			"alphaMode":"BLEND",
			"doubleSided":true,
			"name":"models/props_map_editor/glass",
			"pbrMetallicRoughness":{}
		},
		{
			"doubleSided":true,
			"name":"models/props_map_editor/arm_motionplatform",
			"pbrMetallicRoughness":{}
		},
		{
			"doubleSided":true,
			"name":"models/props_bts/straight_piston",
			"pbrMetallicRoughness":{}
		},
		{
			"doubleSided":true,
			"emissiveFactor":[
				1,
				1,
				1
			],
			"name":"Material.002",
			"pbrMetallicRoughness":{
				"baseColorFactor":[
					0,
					0,
					0,
					1
				]
			}
		}
	],
	"meshes":[
		{
			"name":"Cube.005",
			"primitives":[
				{
					"attributes":{
						"POSITION":0,
						"NORMAL":1,
						"TEXCOORD_0":2
					},
					"indices":3,
					"material":0
				},
				{
					"attributes":{
						"POSITION":4,
						"NORMAL":5,
						"TEXCOORD_0":6
					},
					"indices":7,
					"material":1
				}
			]
		},
		{
			"name":"Cube.001",
			"primitives":[
				{
					"attributes":{
						"POSITION":8,
						"NORMAL":9,
						"TEXCOORD_0":10
					},
					"indices":11,
					"material":2
				},
				{
					"attributes":{
						"POSITION":12,
						"NORMAL":13,
						"TEXCOORD_0":14
					},
					"indices":15,
					"material":3
				},
				{
					"attributes":{
						"POSITION":16,
						"NORMAL":17,
						"TEXCOORD_0":18
					},
					"indices":19,
					"material":4
				}
			]
		},
		{
			"name":"Shape.001",
			"primitives":[
				{
					"attributes":{
						"POSITION":20,
						"NORMAL":21,
						"TEXCOORD_0":22
					},
					"indices":3,
					"material":0
				},
				{
					"attributes":{
						"POSITION":23,
						"NORMAL":24,
						"TEXCOORD_0":25
					},
					"indices":7,
					"material":1
				}
			]
		},
		{
			"name":"Body_dmx/piston_lift_top_model.dmx_MESH",
			"primitives":[
				{
					"attributes":{
						"POSITION":26,
						"NORMAL":27,
						"TEXCOORD_0":28
					},
					"indices":29,
					"material":5
				},
				{
					"attributes":{
						"POSITION":30,
						"NORMAL":31,
						"TEXCOORD_0":32
					},
					"indices":33,
					"material":6
				}
			]
		},
		{
			"name":"default_straight_piston_base_model.dmx_MESH",
			"primitives":[
				{
					"attributes":{
						"POSITION":34,
						"NORMAL":35,
						"TEXCOORD_0":36
					},
					"indices":37,
					"material":7
				}
			]
		},
		{
			"name":"default_straight_piston_mid_model.dmx_MESH",
			"primitives":[
				{
					"attributes":{
						"POSITION":38,
						"NORMAL":39,
						"TEXCOORD_0":40
					},
					"indices":41,
					"material":7
				}
			]
		},
		{
			"name":"default_straight_piston_end_model.dmx_MESH",
			"primitives":[
				{
					"attributes":{
						"POSITION":42,
						"NORMAL":43,
						"TEXCOORD_0":44
					},
					"indices":45,
					"material":7
				}
			]
		},
		{
			"name":"default_straight_piston_tip_model.dmx_MESH",
			"primitives":[
				{
					"attributes":{
						"POSITION":46,
						"NORMAL":47,
						"TEXCOORD_0":48
					},
					"indices":49,
					"material":7
				}
			]
		},
		{
			"name":"Circle.005",
			"primitives":[
				{
					"attributes":{
						"POSITION":50,
						"NORMAL":51,
						"TEXCOORD_0":52
					},
					"indices":53
				}
			]
		},
		{
			"name":"Cube",
			"primitives":[
				{
					"attributes":{
						"POSITION":54,
						"NORMAL":55,
						"TEXCOORD_0":56
					},
					"indices":57,
					"material":0
				},
				{
					"attributes":{
						"POSITION":58,
						"NORMAL":59,
						"TEXCOORD_0":60
					},
					"indices":61,
					"material":1
				}
			]
		},
		{
			"name":"Circle",
			"primitives":[
				{
					"attributes":{
						"POSITION":62,
						"NORMAL":63,
						"TEXCOORD_0":64
					},
					"indices":65,
					"material":8
				}
			]
		}
	],
	"textures":[
		{
			"sampler":0,
			"source":0
		},
		{
			"sampler":0,
			"source":1
		},
		{
			"sampler":0,
			"source":2
		},
		{
			"sampler":0,
			"source":3
		}
	],
	"images":[
		{
			"mimeType":"image/jpeg",
			"name":"1_concrete_very_small_bump",
			"uri":"textures/1_concrete_very_small_bump.jpg"
		},
		{
			"mimeType":"image/jpeg",
			"name":"1_concrete_very_small",
			"uri":"textures/1_concrete_very_small.jpg"
		},
		{
			"mimeType":"image/jpeg",
			"name":"3_metal_large_bump",
			"uri":"textures/3_metal_large_bump.jpg"
		},
		{
			"mimeType":"image/jpeg",
			"name":"3_metal_large",
			"uri":"textures/3_metal_large.jpg"
		}
	],
	"accessors":[
		{
			"bufferView":0,
			"componentType":5126,
			"count":8,
			"max":[
				1,
				1,
				1
			],
			"min":[
				-1,
				-1,
				-1
			],
			"type":"VEC3"
		},
		{
			"bufferView":1,
			"componentType":5126,
			"count":8,
			"type":"VEC3"
		},
		{
			"bufferView":2,
			"componentType":5126,
			"count":8,
			"type":"VEC2"
		},
		{
			"bufferView":3,
			"componentType":5123,
			"count":12,
			"type":"SCALAR"
		},
		{
			"bufferView":4,
			"componentType":5126,
			"count":16,
			"max":[
				1,
				1,
				1
			],
			"min":[
				-1,
				-1,
				-1
			],
			"type":"VEC3"
		},
		{
			"bufferView":5,
			"componentType":5126,
			"count":16,
			"type":"VEC3"
		},
		{
			"bufferView":6,
			"componentType":5126,
			"count":16,
			"type":"VEC2"
		},
		{
			"bufferView":7,
			"componentType":5123,
			"count":24,
			"type":"SCALAR"
		},
		{
			"bufferView":8,
			"componentType":5126,
			"count":2380,
			"max":[
				0.331769198179245,
				0.3260985314846039,
				0.37297606468200684
			],
			"min":[
				-0.3674798011779785,
				-0.3267844617366791,
				-0.326480895280838
			],
			"type":"VEC3"
		},
		{
			"bufferView":9,
			"componentType":5126,
			"count":2380,
			"type":"VEC3"
		},
		{
			"bufferView":10,
			"componentType":5126,
			"count":2380,
			"type":"VEC2"
		},
		{
			"bufferView":11,
			"componentType":5123,
			"count":6276,
			"type":"SCALAR"
		},
		{
			"bufferView":12,
			"componentType":5126,
			"count":1939,
			"max":[
				0.37874919176101685,
				0.37310054898262024,
				0.3730800747871399
			],
			"min":[
				-0.367550790309906,
				-0.3732394576072693,
				-0.3732769191265106
			],
			"type":"VEC3"
		},
		{
			"bufferView":13,
			"componentType":5126,
			"count":1939,
			"type":"VEC3"
		},
		{
			"bufferView":14,
			"componentType":5126,
			"count":1939,
			"type":"VEC2"
		},
		{
			"bufferView":15,
			"componentType":5123,
			"count":3795,
			"type":"SCALAR"
		},
		{
			"bufferView":16,
			"componentType":5126,
			"count":5743,
			"max":[
				0.33693620562553406,
				0.3312625586986542,
				0.3312350809574127
			],
			"min":[
				-0.32571980357170105,
				-0.3314014673233032,
				-0.3314349353313446
			],
			"type":"VEC3"
		},
		{
			"bufferView":17,
			"componentType":5126,
			"count":5743,
			"type":"VEC3"
		},
		{
			"bufferView":18,
			"componentType":5126,
			"count":5743,
			"type":"VEC2"
		},
		{
			"bufferView":19,
			"componentType":5123,
			"count":14529,
			"type":"SCALAR"
		},
		{
			"bufferView":20,
			"componentType":5126,
			"count":8,
			"max":[
				1,
				30.87276840209961,
				1
			],
			"min":[
				-1,
				-1,
				-1
			],
			"type":"VEC3"
		},
		{
			"bufferView":21,
			"componentType":5126,
			"count":8,
			"type":"VEC3"
		},
		{
			"bufferView":22,
			"componentType":5126,
			"count":8,
			"type":"VEC2"
		},
		{
			"bufferView":23,
			"componentType":5126,
			"count":16,
			"max":[
				1,
				30.87276840209961,
				1
			],
			"min":[
				-1,
				-1,
				-1
			],
			"type":"VEC3"
		},
		{
			"bufferView":24,
			"componentType":5126,
			"count":16,
			"type":"VEC3"
		},
		{
			"bufferView":25,
			"componentType":5126,
			"count":16,
			"type":"VEC2"
		},
		{
			"bufferView":26,
			"componentType":5126,
			"count":36,
			"max":[
				6.200832843780518,
				6.2008819580078125,
				3.56888747215271
			],
			"min":[
				-6.200883388519287,
				-6.20083475112915,
				3.563441038131714
			],
			"type":"VEC3"
		},
		{
			"bufferView":27,
			"componentType":5126,
			"count":36,
			"type":"VEC3"
		},
		{
			"bufferView":28,
			"componentType":5126,
			"count":36,
			"type":"VEC2"
		},
		{
			"bufferView":29,
			"componentType":5123,
			"count":66,
			"type":"SCALAR"
		},
		{
			"bufferView":30,
			"componentType":5126,
			"count":4733,
			"max":[
				6.400000095367432,
				6.400000095367432,
				6.006353855133057
			],
			"min":[
				-6.400000095367432,
				-6.400000095367432,
				3.5119903087615967
			],
			"type":"VEC3"
		},
		{
			"bufferView":31,
			"componentType":5126,
			"count":4733,
			"type":"VEC3"
		},
		{
			"bufferView":32,
			"componentType":5126,
			"count":4733,
			"type":"VEC2"
		},
		{
			"bufferView":33,
			"componentType":5123,
			"count":12054,
			"type":"SCALAR"
		},
		{
			"bufferView":34,
			"componentType":5126,
			"count":1201,
			"max":[
				1.5164836645126343,
				-3.8038437366485596,
				1.5165741443634033
			],
			"min":[
				-1.4383189678192139,
				-18.19660186767578,
				-1.516259789466858
			],
			"type":"VEC3"
		},
		{
			"bufferView":35,
			"componentType":5126,
			"count":1201,
			"type":"VEC3"
		},
		{
			"bufferView":36,
			"componentType":5126,
			"count":1201,
			"type":"VEC2"
		},
		{
			"bufferView":37,
			"componentType":5123,
			"count":2934,
			"type":"SCALAR"
		},
		{
			"bufferView":38,
			"componentType":5126,
			"count":915,
			"max":[
				1.2409013509750366,
				-2.088949680328369,
				1.240977168083191
			],
			"min":[
				-1.1498417854309082,
				-16.418357849121094,
				-1.240716576576233
			],
			"type":"VEC3"
		},
		{
			"bufferView":39,
			"componentType":5126,
			"count":915,
			"type":"VEC3"
		},
		{
			"bufferView":40,
			"componentType":5126,
			"count":915,
			"type":"VEC2"
		},
		{
			"bufferView":41,
			"componentType":5123,
			"count":2160,
			"type":"SCALAR"
		},
		{
			"bufferView":42,
			"componentType":5126,
			"count":963,
			"max":[
				1.0151842832565308,
				-0.38757631182670593,
				1.015238881111145
			],
			"min":[
				-0.9406879544258118,
				-14.41479206085205,
				-1.0150402784347534
			],
			"type":"VEC3"
		},
		{
			"bufferView":43,
			"componentType":5126,
			"count":963,
			"type":"VEC3"
		},
		{
			"bufferView":44,
			"componentType":5126,
			"count":963,
			"type":"VEC2"
		},
		{
			"bufferView":45,
			"componentType":5123,
			"count":2292,
			"type":"SCALAR"
		},
		{
			"bufferView":46,
			"componentType":5126,
			"count":151,
			"max":[
				0.3730519115924835,
				6.11166706221411e-06,
				0.3731718957424164
			],
			"min":[
				-0.3729825019836426,
				-8.978713989257812,
				-0.5343115925788879
			],
			"type":"VEC3"
		},
		{
			"bufferView":47,
			"componentType":5126,
			"count":151,
			"type":"VEC3"
		},
		{
			"bufferView":48,
			"componentType":5126,
			"count":151,
			"type":"VEC2"
		},
		{
			"bufferView":49,
			"componentType":5123,
			"count":330,
			"type":"SCALAR"
		},
		{
			"bufferView":50,
			"componentType":5126,
			"count":144,
			"max":[
				1,
				0,
				1
			],
			"min":[
				-1,
				-0.24741274118423462,
				-1
			],
			"type":"VEC3"
		},
		{
			"bufferView":51,
			"componentType":5126,
			"count":144,
			"type":"VEC3"
		},
		{
			"bufferView":52,
			"componentType":5126,
			"count":144,
			"type":"VEC2"
		},
		{
			"bufferView":53,
			"componentType":5123,
			"count":276,
			"type":"SCALAR"
		},
		{
			"bufferView":54,
			"componentType":5126,
			"count":268,
			"max":[
				1,
				1,
				1
			],
			"min":[
				-1,
				-1,
				-1
			],
			"type":"VEC3"
		},
		{
			"bufferView":55,
			"componentType":5126,
			"count":268,
			"type":"VEC3"
		},
		{
			"bufferView":56,
			"componentType":5126,
			"count":268,
			"type":"VEC2"
		},
		{
			"bufferView":57,
			"componentType":5123,
			"count":744,
			"type":"SCALAR"
		},
		{
			"bufferView":58,
			"componentType":5126,
			"count":48,
			"max":[
				1,
				1,
				1
			],
			"min":[
				-1,
				-1,
				-1
			],
			"type":"VEC3"
		},
		{
			"bufferView":59,
			"componentType":5126,
			"count":48,
			"type":"VEC3"
		},
		{
			"bufferView":60,
			"componentType":5126,
			"count":48,
			"type":"VEC2"
		},
		{
			"bufferView":61,
			"componentType":5123,
			"count":120,
			"type":"SCALAR"
		},
		{
			"bufferView":62,
			"componentType":5126,
			"count":48,
			"max":[
				1,
				0,
				1
			],
			"min":[
				-1,
				0,
				-1
			],
			"type":"VEC3"
		},
		{
			"bufferView":63,
			"componentType":5126,
			"count":48,
			"type":"VEC3"
		},
		{
			"bufferView":64,
			"componentType":5126,
			"count":48,
			"type":"VEC2"
		},
		{
			"bufferView":65,
			"componentType":5123,
			"count":144,
			"type":"SCALAR"
		}
	],
	"bufferViews":[
		{
			"buffer":0,
			"byteLength":96,
			"byteOffset":0,
			"target":34962
		},
		{
			"buffer":0,
			"byteLength":96,
			"byteOffset":96,
			"target":34962
		},
		{
			"buffer":0,
			"byteLength":64,
			"byteOffset":192,
			"target":34962
		},
		{
			"buffer":0,
			"byteLength":24,
			"byteOffset":256,
			"target":34963
		},
		{
			"buffer":0,
			"byteLength":192,
			"byteOffset":280,
			"target":34962
		},
		{
			"buffer":0,
			"byteLength":192,
			"byteOffset":472,
			"target":34962
		},
		{
			"buffer":0,
			"byteLength":128,
			"byteOffset":664,
			"target":34962
		},
		{
			"buffer":0,
			"byteLength":48,
			"byteOffset":792,
			"target":34963
		},
		{
			"buffer":0,
			"byteLength":28560,
			"byteOffset":840,
			"target":34962
		},
		{
			"buffer":0,
			"byteLength":28560,
			"byteOffset":29400,
			"target":34962
		},
		{
			"buffer":0,
			"byteLength":19040,
			"byteOffset":57960,
			"target":34962
		},
		{
			"buffer":0,
			"byteLength":12552,
			"byteOffset":77000,
			"target":34963
		},
		{
			"buffer":0,
			"byteLength":23268,
			"byteOffset":89552,
			"target":34962
		},
		{
			"buffer":0,
			"byteLength":23268,
			"byteOffset":112820,
			"target":34962
		},
		{
			"buffer":0,
			"byteLength":15512,
			"byteOffset":136088,
			"target":34962
		},
		{
			"buffer":0,
			"byteLength":7590,
			"byteOffset":151600,
			"target":34963
		},
		{
			"buffer":0,
			"byteLength":68916,
			"byteOffset":159192,
			"target":34962
		},
		{
			"buffer":0,
			"byteLength":68916,
			"byteOffset":228108,
			"target":34962
		},
		{
			"buffer":0,
			"byteLength":45944,
			"byteOffset":297024,
			"target":34962
		},
		{
			"buffer":0,
			"byteLength":29058,
			"byteOffset":342968,
			"target":34963
		},
		{
			"buffer":0,
			"byteLength":96,
			"byteOffset":372028,
			"target":34962
		},
		{
			"buffer":0,
			"byteLength":96,
			"byteOffset":372124,
			"target":34962
		},
		{
			"buffer":0,
			"byteLength":64,
			"byteOffset":372220,
			"target":34962
		},
		{
			"buffer":0,
			"byteLength":192,
			"byteOffset":372284,
			"target":34962
		},
		{
			"buffer":0,
			"byteLength":192,
			"byteOffset":372476,
			"target":34962
		},
		{
			"buffer":0,
			"byteLength":128,
			"byteOffset":372668,
			"target":34962
		},
		{
			"buffer":0,
			"byteLength":432,
			"byteOffset":372796,
			"target":34962
		},
		{
			"buffer":0,
			"byteLength":432,
			"byteOffset":373228,
			"target":34962
		},
		{
			"buffer":0,
			"byteLength":288,
			"byteOffset":373660,
			"target":34962
		},
		{
			"buffer":0,
			"byteLength":132,
			"byteOffset":373948,
			"target":34963
		},
		{
			"buffer":0,
			"byteLength":56796,
			"byteOffset":374080,
			"target":34962
		},
		{
			"buffer":0,
			"byteLength":56796,
			"byteOffset":430876,
			"target":34962
		},
		{
			"buffer":0,
			"byteLength":37864,
			"byteOffset":487672,
			"target":34962
		},
		{
			"buffer":0,
			"byteLength":24108,
			"byteOffset":525536,
			"target":34963
		},
		{
			"buffer":0,
			"byteLength":14412,
			"byteOffset":549644,
			"target":34962
		},
		{
			"buffer":0,
			"byteLength":14412,
			"byteOffset":564056,
			"target":34962
		},
		{
			"buffer":0,
			"byteLength":9608,
			"byteOffset":578468,
			"target":34962
		},
		{
			"buffer":0,
			"byteLength":5868,
			"byteOffset":588076,
			"target":34963
		},
		{
			"buffer":0,
			"byteLength":10980,
			"byteOffset":593944,
			"target":34962
		},
		{
			"buffer":0,
			"byteLength":10980,
			"byteOffset":604924,
			"target":34962
		},
		{
			"buffer":0,
			"byteLength":7320,
			"byteOffset":615904,
			"target":34962
		},
		{
			"buffer":0,
			"byteLength":4320,
			"byteOffset":623224,
			"target":34963
		},
		{
			"buffer":0,
			"byteLength":11556,
			"byteOffset":627544,
			"target":34962
		},
		{
			"buffer":0,
			"byteLength":11556,
			"byteOffset":639100,
			"target":34962
		},
		{
			"buffer":0,
			"byteLength":7704,
			"byteOffset":650656,
			"target":34962
		},
		{
			"buffer":0,
			"byteLength":4584,
			"byteOffset":658360,
			"target":34963
		},
		{
			"buffer":0,
			"byteLength":1812,
			"byteOffset":662944,
			"target":34962
		},
		{
			"buffer":0,
			"byteLength":1812,
			"byteOffset":664756,
			"target":34962
		},
		{
			"buffer":0,
			"byteLength":1208,
			"byteOffset":666568,
			"target":34962
		},
		{
			"buffer":0,
			"byteLength":660,
			"byteOffset":667776,
			"target":34963
		},
		{
			"buffer":0,
			"byteLength":1728,
			"byteOffset":668436,
			"target":34962
		},
		{
			"buffer":0,
			"byteLength":1728,
			"byteOffset":670164,
			"target":34962
		},
		{
			"buffer":0,
			"byteLength":1152,
			"byteOffset":671892,
			"target":34962
		},
		{
			"buffer":0,
			"byteLength":552,
			"byteOffset":673044,
			"target":34963
		},
		{
			"buffer":0,
			"byteLength":3216,
			"byteOffset":673596,
			"target":34962
		},
		{
			"buffer":0,
			"byteLength":3216,
			"byteOffset":676812,
			"target":34962
		},
		{
			"buffer":0,
			"byteLength":2144,
			"byteOffset":680028,
			"target":34962
		},
		{
			"buffer":0,
			"byteLength":1488,
			"byteOffset":682172,
			"target":34963
		},
		{
			"buffer":0,
			"byteLength":576,
			"byteOffset":683660,
			"target":34962
		},
		{
			"buffer":0,
			"byteLength":576,
			"byteOffset":684236,
			"target":34962
		},
		{
			"buffer":0,
			"byteLength":384,
			"byteOffset":684812,
			"target":34962
		},
		{
			"buffer":0,
			"byteLength":240,
			"byteOffset":685196,
			"target":34963
		},
		{
			"buffer":0,
			"byteLength":576,
			"byteOffset":685436,
			"target":34962
		},
		{
			"buffer":0,
			"byteLength":576,
			"byteOffset":686012,
			"target":34962
		},
		{
			"buffer":0,
			"byteLength":384,
			"byteOffset":686588,
			"target":34962
		},
		{
			"buffer":0,
			"byteLength":288,
			"byteOffset":686972,
			"target":34963
		}
	],
	"samplers":[
		{
			"magFilter":9729,
			"minFilter":9987
		}
	],
	"buffers":[
		{
			"byteLength":687260,
			"uri":"portal-models.bin"
		}
	]
}
