<svg width="31" height="31" viewBox="0 0 31 31" fill="none" xmlns="http://www.w3.org/2000/svg">
<path d="M30 15.5C30 23.5081 23.5081 30 15.5 30M30 15.5C30 7.49187 23.5081 1 15.5 1M30 15.5H1M15.5 30C7.49187 30 1 23.5081 1 15.5M15.5 30V1M15.5 30C20.2132 30 24.034 23.5081 24.034 15.5C24.034 7.49187 20.2132 1 15.5 1M15.5 30C10.7868 30 6.96597 23.5081 6.96597 15.5C6.96597 7.49187 10.7868 1 15.5 1M15.5 30C10.9523 30 6.89355 27.9087 4.23496 24.6315C6.89355 22.7032 10.9523 21.472 15.5 21.472C20.0477 21.472 24.1064 22.7032 26.765 24.6315C24.1064 27.9057 20.0477 30 15.5 30ZM1 15.5C1 7.49187 7.49187 1 15.5 1M15.5 1C20.0446 1 24.1004 3.09126 26.759 6.36244C24.1004 8.2847 20.0446 9.51592 15.5 9.51592C10.9554 9.51592 6.89958 8.28772 4.241 6.36244C6.89958 3.09126 10.9554 1 15.5 1Z" stroke="#FAFAFA" stroke-width="1.5" stroke-miterlimit="10"/>
</svg>
