<?xml version="1.0" encoding="UTF-8"?><svg id="white" xmlns="http://www.w3.org/2000/svg" viewBox="0 0 497.1264 497.1264"><defs><style>.cls-1{fill:#202020;}.cls-1,.cls-2{stroke-width:0px;}.cls-2{fill:#f1f1f1;}</style></defs><path class="cls-2" d="M0,165.046C0,93.1811,8.1441,51.1704,35.9116,27.5348,60.6597,6.4693,100.9955,0,165.046,0h167.0345c67.9577,0,109.2192,7.2826,133.4913,31.5547,24.2721,24.2721,31.5547,65.5336,31.5547,133.4913v167.0345c0,66.0026-6.8696,106.823-29.5018,131.354-23.9729,25.9843-65.6314,33.692-135.5442,33.692h-167.0345c-66.9633,0-108.0059-7.0711-132.4148-30.5001C7.4973,442.5015,0,401.0326,0,332.0805v-167.0345Z"/><path class="cls-1" d="M198.2375,248.4866l-105.0263-21.2532,23.6311-82.2382,99.7754,46.2017h64.7663l99.7753-46.2017,22.756,82.2382-105.9024,21.2532,74.3939,94.25-66.5165,50.8219-58.6402-109.0354-49.0125-36.0365Z"/></svg>