<svg width="16" height="16" viewBox="0 0 16 16" fill="none" xmlns="http://www.w3.org/2000/svg">
<path d="M13.7109 1H2.28912C1.02544 1 0 2.03226 0 3.30435V12.6956C0 13.9687 1.02544 15 2.28912 15H13.7109C14.9756 15 16 13.9677 16 12.6956V3.30435C16 2.03126 14.9746 1 13.7109 1ZM3.03859 4.97716C2.49361 4.97716 2.05187 4.53248 2.05187 3.98387C2.05187 3.43526 2.49361 2.99058 3.03859 2.99058C3.58357 2.99058 4.02531 3.43526 4.02531 3.98387C4.02531 4.53248 3.58357 4.97716 3.03859 4.97716ZM13.0249 4.97716H5.94515C5.40017 4.97716 4.95843 4.53248 4.95843 3.98387C4.95843 3.43526 5.40017 2.99058 5.94515 2.99058H13.0239C13.5689 2.99058 14.0107 3.43526 14.0107 3.98387C14.0107 4.53248 13.5689 4.97716 13.0239 4.97716H13.0249Z" fill="white"/>
</svg>
