<svg width="16" height="16" viewBox="0 0 16 16" fill="none" xmlns="http://www.w3.org/2000/svg">
<g clip-path="url(#clip0_1930_40)">
<path d="M1.0984 7.01648C1.76478 7.01648 2.39693 7.01648 3.02907 7.01648C3.93099 7.01648 4.83191 7.02348 5.73282 7.01448C6.44549 7.00648 7.08972 7.03349 7.74603 7.49567C8.24833 7.84881 8.9912 7.97485 9.63442 7.99486C11.552 8.05689 13.4736 8.03188 15.3922 8.00587C15.822 7.99986 15.9458 8.17393 15.973 8.54508C16.0274 9.26536 15.4939 9.89961 14.7379 9.97764C14.5104 10.0006 14.2789 9.98164 13.987 9.98164C13.987 10.5659 13.989 11.0931 13.987 11.6213C13.9809 13.2099 13.2028 13.9912 11.6215 13.9932C11.091 13.9932 10.5615 13.9932 9.96157 13.9932C9.96157 14.3744 9.98975 14.7055 9.95553 15.0296C9.89111 15.6529 9.57503 15.975 8.9459 15.983C7.31017 16.005 5.67443 16.006 4.0387 15.984C3.34918 15.975 3.01398 15.5968 3.00391 14.9006C2.99284 14.1183 2.96264 13.3319 3.00995 12.5526C3.07236 11.5372 2.74421 10.6949 2.19762 9.84459C1.73156 9.1183 1.47991 8.25296 1.1437 7.44465C1.09639 7.3306 1.1135 7.19055 1.09639 7.01648H1.0984Z" fill="white"/>
<path d="M6.25223 5.98808C4.49369 5.98808 2.77541 5.99909 1.05714 5.98208C0.395798 5.97608 0.0102681 5.59393 0.000202055 5.0227C-0.009864 4.44348 0.35654 4.06433 1.01788 4.02731C1.2947 4.01231 1.46179 3.95129 1.59869 3.68118C2.94754 1.01514 5.45097 -0.294374 8.4416 0.0557624C9.37975 0.165805 10.2716 0.38089 11.2007 0.988127C10.7135 0.988127 10.3582 1.01414 10.0079 0.984125C7.23568 0.743031 5.24059 3.226 6.25122 5.98908L6.25223 5.98808Z" fill="white"/>
<path d="M12.9572 6.98347C11.7433 6.98347 10.5907 7.02548 9.44317 6.97246C8.02184 6.90644 7.06456 5.93206 7.01826 4.60354C6.97095 3.25801 7.83965 2.18259 9.24386 2.06654C10.4639 1.96551 11.7 2.04554 12.9572 2.04554V6.98347Z" fill="white"/>
<path d="M14.0675 2.01552C14.3192 2.01552 14.5497 2.01252 14.7792 2.01552C15.6187 2.02953 15.973 2.36066 15.9891 3.19298C16.0062 4.04132 16.0002 4.89065 15.9911 5.73998C15.9811 6.65734 15.6358 6.98347 14.7007 6.98947C14.5024 6.99047 14.3041 6.98947 14.0675 6.98947V2.01552Z" fill="white"/>
</g>
<defs>
<clipPath id="clip0_1930_40">
<rect width="16" height="16" fill="white"/>
</clipPath>
</defs>
</svg>
