<svg width="16" height="16" viewBox="0 0 16 16" fill="none" xmlns="http://www.w3.org/2000/svg">
<g clip-path="url(#clip0_1932_96)">
<path fill-rule="evenodd" clip-rule="evenodd" d="M6.00993 3.01978C5.93708 3.00007 5.8611 2.99503 5.78631 3.00493C5.71152 3.01483 5.6394 3.03949 5.57407 3.0775C5.50873 3.11551 5.45145 3.16612 5.40552 3.22644C5.35958 3.28675 5.32588 3.35561 5.30633 3.42906C5.28679 3.50252 5.28179 3.57914 5.29161 3.65454C5.30143 3.72995 5.32589 3.80265 5.36358 3.86852C5.40128 3.9344 5.45148 3.99215 5.5113 4.03846C5.57113 4.08477 5.63941 4.11876 5.71227 4.13847L11.2561 5.63518C11.3299 5.65826 11.4076 5.66608 11.4845 5.65816C11.5614 5.65024 11.6359 5.62674 11.7035 5.58908C11.7711 5.55142 11.8305 5.50038 11.8781 5.43901C11.9257 5.37764 11.9606 5.3072 11.9806 5.23193C12.0005 5.15666 12.0051 5.0781 11.9943 5.00095C11.9834 4.92382 11.9572 4.84969 11.9172 4.78304C11.8772 4.71637 11.8242 4.65852 11.7615 4.61299C11.6989 4.56746 11.6277 4.53516 11.5522 4.51804L6.00917 3.02132L6.00993 3.01978ZM5.36641 5.44231C5.22116 5.40758 5.06823 5.43128 4.94004 5.50836C4.81184 5.58545 4.71848 5.70986 4.67975 5.8552C4.64102 6.00053 4.65998 6.15537 4.7326 6.28686C4.80522 6.41833 4.9258 6.5161 5.06875 6.55944L10.6126 8.0577C10.7597 8.0974 10.9165 8.07654 11.0484 7.99971C11.1803 7.92288 11.2764 7.79638 11.3158 7.64803C11.3551 7.49968 11.3345 7.34165 11.2582 7.20868C11.182 7.07572 11.0566 6.97871 10.9095 6.93902L5.36641 5.44231ZM4.01966 8.27295C4.05912 8.12486 4.15526 7.99862 4.28697 7.92194C4.41867 7.84528 4.57519 7.82446 4.72211 7.86405L8.418 8.86238C8.49081 8.88204 8.55905 8.916 8.61885 8.9622C8.67865 9.00841 8.72884 9.06613 8.76653 9.1319C8.80423 9.19779 8.8287 9.27039 8.83855 9.34576C8.8484 9.42101 8.84344 9.49758 8.82394 9.57102C8.80444 9.64435 8.77081 9.71324 8.72493 9.77348C8.67906 9.83385 8.62186 9.88438 8.5566 9.92242C8.49133 9.96046 8.41928 9.98506 8.34456 9.99503C8.26984 10.005 8.19391 9.99995 8.1211 9.98026L4.42521 8.98201C4.3524 8.96232 4.28416 8.92836 4.22437 8.88204C4.16458 8.83572 4.11442 8.77801 4.07676 8.71217C4.0391 8.64632 4.01466 8.57364 4.00486 8.49829C3.99507 8.42292 4.0001 8.34635 4.01966 8.27295Z" fill="#171717"/>
<path fill-rule="evenodd" clip-rule="evenodd" d="M9.90242 15.9258L2.55092 13.8727C2.01481 13.7228 1.55777 13.3571 1.28029 12.8559C1.00283 12.3545 0.92767 11.7589 1.07134 11.1999L3.53349 1.61715C3.67725 1.05815 4.02808 0.581584 4.50879 0.292268C4.9895 0.00295234 5.56075 -0.0754256 6.09688 0.0743924L13.4491 2.12744C13.9852 2.27734 14.4422 2.64314 14.7197 3.14439C14.9972 3.64563 15.0723 4.24127 14.9287 4.80029L12.4657 14.3822C12.322 14.9413 11.9712 15.4178 11.4904 15.7072C11.0098 15.9964 10.4385 16.0757 9.90242 15.9258ZM2.17341 11.5078C2.14107 11.6337 2.13282 11.7649 2.14913 11.8941C2.16543 12.0232 2.20598 12.1478 2.26847 12.2606C2.33095 12.3734 2.41412 12.4723 2.51326 12.5517C2.61239 12.6309 2.72553 12.6891 2.84622 12.7228L10.1984 14.7766C10.4419 14.8445 10.7013 14.809 10.9198 14.6775C11.1381 14.5461 11.2974 14.3297 11.3629 14.0759L13.8258 4.49237C13.8582 4.36653 13.8665 4.23527 13.8501 4.10611C13.8338 3.97694 13.7933 3.85238 13.7308 3.73956C13.6683 3.62673 13.5852 3.52785 13.4859 3.44854C13.3868 3.36924 13.2737 3.31107 13.153 3.27737L5.80004 1.22273C5.55641 1.15487 5.29689 1.19063 5.07854 1.32218C4.86019 1.45373 4.70086 1.6703 4.63556 1.92428L2.17341 11.5078Z" fill="#171717"/>
</g>
<defs>
<clipPath id="clip0_1932_96">
<rect width="16" height="16" fill="white"/>
</clipPath>
</defs>
</svg>
